<?xml version="1.0" encoding="utf-8"?>
<!-- Generator: Adobe Illustrator 26.2.1, SVG Export Plug-In . SVG Version: 6.00 Build 0)  -->
<svg version="1.1" id="a" xmlns="http://www.w3.org/2000/svg" xmlns:xlink="http://www.w3.org/1999/xlink" x="0px" y="0px"
	 viewBox="0 0 516 112" style="enable-background:new 0 0 516 112;" xml:space="preserve">
<style type="text/css">
	.st0{fill:#333F48;}
	.st1{fill:#BE5927;}
</style>
<g>
	<g>
		<path class="st0" d="M59.7,25.8l6-0.1c6.1,0,9.9,3.5,9.9,9.9S72.2,46,65.4,46.8l-5.7-0.1l-4.1,0.1l-0.2-1.1l2.7-0.4V27.2l-2.7-0.4
			l0.2-1C55.6,25.7,59.7,25.8,59.7,25.8z M61.3,27.2v18l3.8,0.3c4.2,0,7-3.8,7-9.4c0-5-2.6-9-7.8-9C64.2,27,61.3,27.2,61.3,27.2z"/>
		<path class="st0" d="M80.7,39.1c0,3.4,1.8,5.8,5,5.8c1.2,0,2.6-0.6,3.8-1.3l0.5,1.1c-1.4,1-3.3,1.8-5.2,2.4
			c-3.6,0-6.9-2.6-6.9-7.3c0-4.4,2.7-6.8,6.8-7.7c4,0,5.3,2.5,5.3,5.6v1.3H80.7z M86.8,37.6c0-2.3-0.4-3.9-2.8-3.9
			c-1.8,0-3,1.7-3.2,4.2L86.8,37.6z"/>
		<path class="st0" d="M96.1,46.6v5.8l3.1,0.3l-0.1,1.1l-4.4-0.1l-3.4,0.1l-0.1-1.1l2.1-0.3V34.5l-2.1,0.2l-0.1-1l3.6-0.9l1.3-0.1
			l0.1,2.5l3.8-2.9c3.9,0,6.1,2.6,6.1,7c0,5.1-3.1,7.4-7.5,8C97.6,47.2,96.8,47,96.1,46.6z M99.9,34.5c-0.8,0-1.8,0.5-2.9,1.4
			l-0.9,0.7v7.5c0.7,1.1,1.9,1.7,3.3,1.7c2.2,0,3.6-2.1,3.6-5.6S101.7,34.5,99.9,34.5L99.9,34.5z"/>
		<path class="st0" d="M113.9,32.2c3.8,0,4.7,1,4.7,4.8v5.9c0,1.3,0.2,1.8,0.5,2.2h1.5l0.1,1.1l-3.9,0.8l-0.9-2.3l-3.6,2.6
			c-2.6,0-4.4-1.4-4.4-3.8c0-1.1,0.4-1.9,1.1-2.8l6.8-2.2v-1.5c0-1.8-0.1-2.9-1.8-2.9c-0.8,0-1.8,0.3-2.5,0.5l-0.5,2.4h-2.6v-2.3
			L113.9,32.2L113.9,32.2z M115.8,39.6l-4.4,1.8c-0.4,0.4-0.6,1-0.6,1.7c0,1.5,0.9,2.1,1.7,2.1s1.6-0.5,1.9-0.8l1.3-0.9L115.8,39.6
			L115.8,39.6z"/>
		<path class="st0" d="M126.6,36.6l3.4-4.2h2.4v3h-2.2c-0.7,0.2-2,1.1-2.9,2.1l-0.6,0.7v7.1l3.1,0.3l-0.1,1.1l-4.4-0.1l-3.4,0.1
			l-0.1-1.1l2.1-0.3V34.5l-2.1,0.2l-0.1-1.1l3.6-0.9l1.2-0.1L126.6,36.6L126.6,36.6z"/>
		<path class="st0" d="M133.1,34.4v-0.5l1.1-1h1.9v-2l1.9-2h0.8V33h4.5v1.3h-4.5v8.8c0,0.9,0.3,1.8,1.6,1.8c0.9,0,1.5-0.3,2.4-0.7
			l0.5,1l-3.5,1.9c-3.4,0-3.8-1.2-3.8-3.9v-8.9L133.1,34.4L133.1,34.4z"/>
		<path class="st0" d="M165.3,46.7l-2.9,0.1l-0.1-1.1l1.5-0.3v-8.6c0-1.6-0.7-2.2-1.7-2.2c-0.9,0-2,0.6-3.1,1.3l-0.9,0.6v8.9
			l1.4,0.3l-0.1,1.1l-2.6-0.1l-2.7,0.1l-0.1-1.1l1.4-0.3v-8.6c0-1.6-0.7-2.2-1.7-2.2c-0.9,0-2,0.6-3.1,1.3l-0.9,0.6v8.9l1.5,0.3
			l-0.1,1.1l-2.7-0.1l-3.4,0.1l-0.1-1.1l2.1-0.3V34.5l-2.1,0.2l-0.1-1.1l3.6-0.9l1.3-0.1l0.1,2.5l4.1-2.9c2.9,0,4,0.9,4.3,2.9
			l4.2-2.9c3.8,0,4.5,1.4,4.5,5.2v8l2.2,0.3l-0.1,1.1L165.3,46.7L165.3,46.7z"/>
		<path class="st0" d="M172.8,39.1c0,3.4,1.8,5.8,5,5.8c1.2,0,2.6-0.6,3.8-1.3l0.5,1.1c-1.4,1-3.3,1.8-5.2,2.4
			c-3.6,0-6.9-2.6-6.9-7.3c0-4.4,2.7-6.8,6.8-7.7c4,0,5.3,2.5,5.3,5.6v1.3H172.8z M178.8,37.6c0-2.3-0.4-3.9-2.8-3.9
			c-1.8,0-3,1.7-3.2,4.2L178.8,37.6z"/>
		<path class="st0" d="M187.2,46.7l-3.4,0.1l-0.1-1.1l2.1-0.3V34.5l-2.1,0.2l-0.1-1.1l3.6-0.9l1.3-0.1l0.1,2.5l4.4-2.9
			c3.8,0,4.5,1.3,4.5,4.9v8.3l2.3,0.3l-0.1,1.1l-3.4-0.1l-2.9,0.1l-0.1-1.1l1.5-0.3v-8.6c0-1.6-0.7-2.2-2-2.2
			c-1.1,0-2.1,0.7-3.1,1.3l-0.9,0.6v8.9l1.6,0.3l-0.1,1.1L187.2,46.7L187.2,46.7z"/>
		<path class="st0" d="M199.6,34.4v-0.5l1.1-1h1.9v-2l1.9-2h0.8V33h4.5v1.3h-4.5v8.8c0,0.9,0.3,1.8,1.6,1.8c0.9,0,1.5-0.3,2.4-0.7
			l0.5,1l-3.5,1.9c-3.4,0-3.8-1.2-3.8-3.9v-8.9L199.6,34.4L199.6,34.4z"/>
		<path class="st0" d="M232.4,39.4c0,4.5-2.7,7.1-7.4,7.8c-4,0-6.7-3.1-6.7-7.2c0-4.5,2.7-7.1,7.4-7.8
			C229.7,32.2,232.4,35.3,232.4,39.4z M225.8,45.7c2.4,0,3.6-2.5,3.6-5.7c0-3.8-1.8-6.4-4.4-6.4c-2.4,0-3.6,2.5-3.6,5.7
			C221.3,42.7,223.1,45.7,225.8,45.7z"/>
		<path class="st0" d="M239.2,33h3.8v1.4h-3.8v11.1l3.5,0.2l-0.1,1.1l-4.6-0.1l-3.5,0.1l-0.1-1.1l2.1-0.3V34.4h-2.6v-0.5l0.9-1.1
			h1.7v-0.3c0-1.8,0.6-3,1.6-4.2l2.5-2.8h3.8v2.4h-3.9l-0.6,0.8c-0.4,0.6-0.6,1.4-0.6,3.4L239.2,33L239.2,33z"/>
		<path class="st0" d="M257.5,39.7l-1.9,5.6l2.6,0.4l-0.1,1.1l-3.6-0.1l-3.2,0.1l-0.1-1.1l2.3-0.3l7.4-19.4l1.8-0.5l7.8,20l2.3,0.3
			l-0.2,1.1l-4.1-0.1l-4,0.1l-0.2-1.1l2.5-0.4l-2-5.6L257.5,39.7L257.5,39.7z M261.5,30.4l-0.2-1.6l-3.3,9.5h6.4L261.5,30.4
			L261.5,30.4z"/>
		<path class="st0" d="M277.4,46.7l-3.5,0.1l-0.1-1.1l2.1-0.3V34.5l-2.1,0.2l-0.2-1.1l3.6-0.9l1.3-0.1l0.2,2.5l4.4-2.9
			c3.8,0,4.5,1.3,4.5,4.9v8.3l2.3,0.3l-0.2,1.1l-3.5-0.1l-2.9,0.1l-0.1-1.1l1.5-0.3v-8.6c0-1.6-0.7-2.2-2-2.2c-1,0-2.1,0.7-3.1,1.3
			l-0.9,0.6v8.9l1.6,0.3l-0.1,1.1L277.4,46.7z"/>
		<path class="st0" d="M289.8,34.4v-0.5l1-1h2v-2l2-2h0.8V33h4.5v1.3h-4.5v8.8c0,0.9,0.3,1.8,1.6,1.8c0.9,0,1.5-0.3,2.4-0.7l0.5,1
			l-3.5,1.9c-3.4,0-3.8-1.2-3.8-3.9v-8.9C292.7,34.4,289.8,34.4,289.8,34.4z"/>
		<path class="st0" d="M305.5,45.4l1.6,0.3l-0.1,1.1l-2.9-0.1l-3.5,0.1l-0.1-1.1l2.1-0.3V27.4l-2.1,0.1l-0.2-1l3.6-0.9l1.5-0.1v9.7
			l4.4-2.8c3.8,0,4.5,1.4,4.5,5.2v8l2.2,0.3l-0.1,1.1l-3.5-0.1l-2.8,0.1l-0.2-1.1l1.5-0.3v-8.6c0-1.6-0.7-2.2-1.9-2.2
			c-0.9,0-2.1,0.7-3.2,1.3l-0.9,0.6V45.4L305.5,45.4z"/>
		<path class="st0" d="M322.6,36.6l3.4-4.2h2.4v3h-2.2c-0.7,0.2-2,1.1-2.9,2.1l-0.6,0.7v7.1l3.1,0.3l-0.1,1.1l-4.4-0.1l-3.4,0.1
			l-0.1-1.1l2.1-0.3V34.5l-2.1,0.2l-0.2-1.1l3.6-0.9l1.2-0.1L322.6,36.6L322.6,36.6z"/>
		<path class="st0" d="M343.6,39.4c0,4.5-2.7,7.1-7.4,7.8c-4,0-6.7-3.1-6.7-7.2c0-4.5,2.7-7.1,7.4-7.8
			C340.9,32.2,343.6,35.3,343.6,39.4z M337,45.7c2.4,0,3.6-2.5,3.6-5.7c0-3.8-1.8-6.4-4.4-6.4c-2.4,0-3.6,2.5-3.6,5.7
			C332.6,42.7,334.3,45.7,337,45.7z"/>
		<path class="st0" d="M349.8,46.6v5.8l3.1,0.3l-0.1,1.1l-4.4-0.1l-3.5,0.1l-0.1-1.1l2.1-0.3V34.5l-2.1,0.2l-0.2-1l3.6-0.9l1.3-0.1
			l0.2,2.5l3.8-2.9c3.9,0,6.1,2.6,6.1,7c0,5.1-3.1,7.4-7.5,8C351.3,47.2,350.5,47,349.8,46.6z M353.6,34.5c-0.8,0-1.8,0.5-2.9,1.4
			l-0.9,0.7v7.5c0.7,1.1,1.9,1.7,3.3,1.7c2.2,0,3.6-2.1,3.6-5.6S355.4,34.5,353.6,34.5z"/>
		<path class="st0" d="M375.7,39.4c0,4.5-2.7,7.1-7.4,7.8c-4,0-6.7-3.1-6.7-7.2c0-4.5,2.7-7.1,7.4-7.8
			C373,32.2,375.7,35.3,375.7,39.4z M369.1,45.7c2.4,0,3.6-2.5,3.6-5.7c0-3.8-1.8-6.4-4.4-6.4c-2.4,0-3.6,2.5-3.6,5.7
			C364.6,42.7,366.4,45.7,369.1,45.7z"/>
		<path class="st0" d="M380.3,46.7l-3.5,0.1l-0.1-1.1l2.1-0.3V27.4l-2.1,0.1l-0.2-1l3.6-0.9l1.5-0.1v20.1l2.2,0.3l-0.2,1.1
			C383.8,46.8,380.3,46.7,380.3,46.7z"/>
		<path class="st0" d="M399.3,39.4c0,4.5-2.7,7.1-7.4,7.8c-4,0-6.7-3.1-6.7-7.2c0-4.5,2.7-7.1,7.4-7.8
			C396.6,32.2,399.3,35.3,399.3,39.4z M392.7,45.7c2.4,0,3.6-2.5,3.6-5.7c0-3.8-1.8-6.4-4.4-6.4c-2.4,0-3.6,2.5-3.6,5.7
			C388.2,42.7,390,45.7,392.7,45.7z"/>
		<path class="st0" d="M412.1,34l1.6-1.8h1.8v2.4h-1.8l-1,0.5c0.2,0.4,0.3,0.9,0.3,1.4c0,2.6-1.8,4.3-5.8,5.4c-0.4,0-0.8,0-1.2-0.1
			l-1.6,1.9c0,0.6,0.5,1,1.2,1h5.5c2.7,0,3.9,1.3,3.9,3.1c0,2.5-3.1,4.9-7.7,6.2c-4.3,0-6.5-1.3-6.5-4.1v-0.5l3.3-2.5
			c-2.1-0.8-2.2-1.7-2.2-3.1v-0.2l3-2.1c-1.9-0.7-3.1-2.1-3.1-4c0-2.5,1.7-4.3,5.9-5.4C409.5,32.2,411.2,32.9,412.1,34L412.1,34z
			 M405.2,47.2c-1.5,1.7-1.7,2.2-1.7,2.6c0,1.4,1.6,2.5,4.1,2.5c2.5,0,4.6-1.6,4.6-3.6c0-1.1-0.8-1.5-2.9-1.5H405.2L405.2,47.2z
			 M407.1,33.6c-1.6,0-2.5,1.3-2.5,3.2c0,1.4,0.6,3.8,3.1,3.8c1.6,0,2.5-1.1,2.5-2.8C410.2,36.1,409.6,33.6,407.1,33.6z"/>
		<path class="st0" d="M418.2,53.8v-3h2.6l3-4.5l-1.2,0.4L417.7,34l-1.9-0.3l0.2-1.1l3.5,0.1l3.1-0.1l0.2,1.1l-2,0.3l3.2,8.8
			l0.2,2.1l3.6-10.9l-1.4-0.3l0.2-1.1l2.6,0.1l2.5-0.1l0.1,1.1l-1.9,0.3l-4.7,12.3l-3.4,7.6H418.2L418.2,53.8z"/>
		<path class="st0" d="M61.2,71.1c-3.4,0-5.6-2.4-5.6-6.2c0-3.1,1.3-6.6,5.6-8l1.7-0.6c2,0,3.5,0.9,4.2,1.5L67,60.8h-1.1l-0.4-1.9
			c-0.6-0.6-1.7-1.1-3.6-1.4c-2.7,1.2-4.1,3.7-4.1,7.1c0,3.6,2,5.4,4.3,5.5c1-0.4,1.6-0.7,2.2-1.3l1.2-2.4h1.1l-0.8,3.4
			C65.7,69.8,61.2,71.1,61.2,71.1z"/>
		<path class="st0" d="M76,65c0,2.4-1.4,4.7-3.9,5.6L71,71.1c-1.7,0-3.3-1.4-3.3-4c0-2.4,1.4-4.7,3.9-5.6l1.2-0.5
			C74.5,61.1,76,62.5,76,65z M69.6,66.8c0,2.2,1,3.1,2.1,3.3c1.8-0.6,2.4-3.1,2.4-4.8c0-2.2-1.1-3.1-2.2-3.3
			C70.1,62.6,69.6,65.1,69.6,66.8z"/>
		<path class="st0" d="M77.3,58.2L77,57.6l3.5-1.1l0.5,0.5l-2.2,12.6l1.7-1l0.3,0.5l-2.8,2l-1-0.6l2.3-12.8
			C79.2,57.6,77.3,58.2,77.3,58.2z"/>
		<path class="st0" d="M82.5,58.2l-0.2-0.6l3.5-1.1l0.5,0.5l-2.2,12.6l1.7-1l0.3,0.5l-2.8,2l-1-0.6l2.3-12.8
			C84.5,57.6,82.5,58.2,82.5,58.2z"/>
		<path class="st0" d="M93.2,68.3l0.4,0.5c-0.5,0.4-1.6,1.2-2.6,1.8l-0.8,0.5c-2,0-3.3-1.5-3.3-3.7c0-2.5,1.4-4.9,4-5.9l1.1-0.4
			c1.3,0.2,2.2,0.7,2.2,2.1c0,0.5-0.1,1-0.4,1.7l-5,1.6c0,0.2,0,0.4,0,0.5c0,1.8,1.1,2.6,2.1,2.6C91.6,69.3,92.5,68.8,93.2,68.3
			L93.2,68.3z M88.9,65.8l3.3-1.3c0.1-0.4,0.2-0.7,0.2-1.1c0-0.9-0.5-1.2-1.1-1.3C89.8,62.6,89.2,64.2,88.9,65.8L88.9,65.8z"/>
		<path class="st0" d="M94.8,75.5l0.3-1.6h3.7c0.6-0.4,1.3-1.4,1.5-2.6l0.3-2l0.3-0.9l-2.8,2.7c-1.4-0.3-2.7-1.2-2.7-3.8
			c0-2.4,1.1-4.5,3.5-5.6l1.3-0.6c0.8,0,2.3,0.4,3.4,0.9l-1.7,9.7c-0.2,0.9-1,1.6-2.2,2.5l-1.7,1.3L94.8,75.5L94.8,75.5z M98.6,69.6
			l2.3-1.8l0.9-4.8c-0.5-0.4-1.7-0.7-2.5-0.7c-1.2,0.9-1.9,2.8-1.9,4.7C97.3,68.4,97.9,69.2,98.6,69.6z"/>
		<path class="st0" d="M110.9,68.3l0.4,0.5c-0.5,0.4-1.6,1.2-2.6,1.8l-0.8,0.5c-2,0-3.3-1.5-3.3-3.7c0-2.5,1.4-4.9,4-5.9l1.1-0.4
			c1.3,0.2,2.2,0.7,2.2,2.1c0,0.5-0.1,1-0.4,1.7l-5,1.6c0,0.2,0,0.4,0,0.5c0,1.8,1.1,2.6,2.1,2.6C109.2,69.3,110.2,68.8,110.9,68.3
			L110.9,68.3z M106.6,65.8l3.3-1.3c0.1-0.4,0.2-0.7,0.2-1.1c0-0.9-0.5-1.2-1.1-1.3C107.5,62.6,106.8,64.2,106.6,65.8L106.6,65.8z"
			/>
		<path class="st0" d="M126.2,65c0,2.4-1.4,4.7-3.9,5.6l-1.2,0.5c-1.7,0-3.3-1.4-3.3-4c0-2.4,1.4-4.7,3.9-5.6l1.2-0.5
			C124.7,61.1,126.2,62.5,126.2,65z M119.8,66.8c0,2.2,1,3.1,2.1,3.3c1.8-0.6,2.4-3.1,2.4-4.8c0-2.2-1.1-3.1-2.2-3.3
			C120.3,62.6,119.8,65.1,119.8,66.8z"/>
		<path class="st0" d="M126.6,73.8c0.4-0.5,0.7-1.2,0.8-1.7l1.7-9.6h-1.9l0.1-0.4l0.7-0.7h1.3l0.2-1.1c0.2-1.1,0.6-1.9,1.3-2.4
			l2.5-1.6h1.6l-0.3,1.6h-2.5c-0.5,0.4-0.8,1.2-0.9,1.7l-0.3,1.8h2.3l-0.2,1h-2.2l-1.5,8.9c-0.2,1-0.6,1.9-1.3,2.4l-2.5,1.6H124
			l0.3-1.6L126.6,73.8L126.6,73.8z"/>
		<path class="st0" d="M143.1,56.8l2.7-0.1v0.7l-1.8,0.3L142,69.8l4.6-0.1l1.9-2.7h0.8l-1.2,3.7l-7.1-0.1l-2.7,0.1v-0.7l1.8-0.3
			l1.9-12.1l-1.8-0.3l0.2-0.7L143.1,56.8z"/>
		<path class="st0" d="M150.4,63.1l-0.2-0.6l3.3-1.5l0.6,0.6l-1.4,7.9l1.7-1l0.3,0.5l-2.8,2l-1-0.6l1.4-8L150.4,63.1L150.4,63.1z
			 M153.3,57l0.6-0.1L155,57v1l-0.3,0.9l-0.5,0.1l-1.3-0.1l0.1-1L153.3,57L153.3,57z"/>
		<path class="st0" d="M161.4,61.1c1.4,0.3,2.5,1.3,2.5,3.6c0,2.5-1.3,4.9-3.7,5.9l-1.2,0.5c-1-0.1-2.1-0.4-3.2-0.9l2.2-12.5
			l-1.9,0.5l-0.2-0.6l3.5-1.1l0.5,0.5l-1,5.8l-0.4,0.9L161.4,61.1L161.4,61.1z M158.5,64.3l-0.8,4.7c0.7,0.5,1.7,0.8,2.4,0.8
			c1.4-0.7,2-2.8,2-4.5c0-1.8-0.6-2.6-1.2-2.8L158.5,64.3L158.5,64.3z"/>
		<path class="st0" d="M171.4,68.3l0.4,0.5c-0.5,0.4-1.6,1.2-2.6,1.8l-0.8,0.5c-2,0-3.3-1.5-3.3-3.7c0-2.5,1.4-4.9,4-5.9l1.1-0.4
			c1.3,0.2,2.2,0.7,2.2,2.1c0,0.5-0.1,1-0.4,1.7l-5,1.6c0,0.2,0,0.4,0,0.5c0,1.8,1.1,2.6,2.1,2.6C169.7,69.3,170.7,68.8,171.4,68.3
			L171.4,68.3z M167,65.8l3.3-1.3c0.1-0.4,0.2-0.7,0.2-1.1c0-0.9-0.5-1.2-1.1-1.3C168,62.6,167.3,64.2,167,65.8L167,65.8z"/>
		<path class="st0" d="M176.8,63.2l-0.6,2.2l2.7-4.1h1.6l-0.4,1.8h-0.9c-0.5,0.3-1.3,1.1-1.9,1.8l-0.8,1l-0.9,4.9h-1.7l1.5-8.3
			l-1.9,0.7l-0.2-0.6l3.3-1.5l0.5,0.5C177.1,61.6,176.8,63.2,176.8,63.2z"/>
		<path class="st0" d="M188,69.6l1.7-1L190,69l-2.8,2l-1-0.6l0.2-1.2l0.3-0.9l-2.8,2.7c-1.3-0.3-2.6-1.2-2.6-3.8s1.3-4.5,3.7-5.6
			l1.2-0.6c0.7,0,2.2,0.4,3.2,0.8L188,69.6z M184.5,69.5l2.2-1.8l0.9-4.9c-0.5-0.4-1.7-0.6-2.4-0.6c-1,0.8-2,2.4-2,4.7
			C183.1,68.3,183.8,69.2,184.5,69.5L184.5,69.5z"/>
		<path class="st0" d="M191.5,58.2l-0.2-0.6l3.5-1.1l0.5,0.5l-2.2,12.6l1.7-1l0.3,0.5l-2.8,2l-1-0.6l2.3-12.8L191.5,58.2L191.5,58.2
			z"/>
		<path class="st0" d="M209.5,70.7l-2.6,0.1v-0.7l1.7-0.3l-0.4-3.7h-4.4l-2,3.7l1.7,0.3l-0.2,0.7l-2.2-0.1l-2.2,0.1v-0.7l1.6-0.2
			l7.3-13.1l1.3-0.4l1.4,13.5l1.5,0.2l-0.2,0.7L209.5,70.7z M204.4,65.1h3.8l-0.5-4.8v-1.4C207.7,58.9,204.4,65.1,204.4,65.1z"/>
		<path class="st0" d="M216,63.2l-0.6,2.2l2.7-4.1h1.6l-0.4,1.8h-0.9c-0.5,0.3-1.3,1.1-1.9,1.8l-0.8,1l-0.9,4.9h-1.7l1.5-8.3
			l-1.9,0.7l-0.2-0.6l3.3-1.5l0.5,0.5L216,63.2L216,63.2z"/>
		<path class="st0" d="M223,69.6l2.6-1.1l0.3,0.5l-3.8,2l-1-0.6l1.4-7.9h-1.9l0.1-0.3l0.7-0.7h1.2l0.3-1.4l1.4-1.3h0.5l-0.5,2.8h2.5
			l-0.2,0.9h-2.5L223,69.6L223,69.6z"/>
		<path class="st0" d="M229.1,71.1c-0.6-0.2-2-0.9-2.4-1.2l1-1.4c0.6,0.4,1.9,1.1,2.5,1.5c0.7-0.2,1-0.6,1-1.3
			c0-0.4-0.1-0.9-0.6-1.3l-1.7-1.6c-0.5-0.4-0.8-1.1-0.8-1.8c0-1.1,0.8-1.8,2.6-2.5l1.1-0.4c0.5,0.1,1.7,0.7,2.2,0.9l-0.9,1.4
			c-0.6-0.4-1.7-1-2.3-1.3c-0.6,0.2-0.9,0.6-0.9,1.2c0,0.5,0.2,0.9,0.7,1.4l1.6,1.4c0.6,0.6,0.9,1.1,0.9,1.9c0,1.1-0.5,1.9-2.1,2.4
			L229.1,71.1L229.1,71.1z"/>
	</g>
	<g>
		<g>
			<polygon class="st1" points="20.9,18 21,18 21,18 20.9,18 20.9,18 			"/>
			<path class="st1" d="M26.4,13.5c-1.1-0.2-2.2-0.3-3.2-0.3c-0.5,0-1,0-1.4,0.1L21.5,7v-1c0.5-0.2,1-0.3,1.7-0.3
				c0.9,0,1.9,0.1,3,0.3c0.9,0.1,1.9,0.3,2.9,0.3l0.3,7.6C28.4,13.8,27.4,13.7,26.4,13.5C26.4,13.5,26.4,13.5,26.4,13.5z M15.5,13.5
				c-1,0.2-2,0.3-3,0.4l0.3-7.6c1-0.1,2-0.2,2.9-0.3c1.1-0.2,2.1-0.3,3-0.3c0.7,0,1.2,0.1,1.7,0.3v1l-0.2,6.4
				c-0.4-0.1-0.9-0.1-1.4-0.1C17.7,13.2,16.6,13.3,15.5,13.5L15.5,13.5L15.5,13.5z M31.7,9V7.6h-0.9V5.1h-0.6
				c-1.3,0-2.5-0.2-3.8-0.4c-1.1-0.2-2.2-0.3-3.2-0.3c-0.9,0-1.7,0.1-2.3,0.4c-0.6-0.3-1.4-0.4-2.3-0.4c-1,0-2,0.2-3.2,0.3
				c-1.2,0.2-2.5,0.4-3.8,0.4h-0.6v2.5h-0.9V9h0.9v2h-0.9v1.5h0.9v2.7h0.6c1.4,0,2.7-0.2,4-0.4c1.1-0.2,2.1-0.3,3-0.3
				c0.7,0,1.2,0.1,1.7,0.3h1.2c0.4-0.2,1-0.3,1.7-0.3c0.9,0,1.9,0.2,3,0.3c1.3,0.2,2.6,0.4,4,0.4h0.6v-2.7h0.9V11h-0.9V9
				C30.8,9,31.7,9,31.7,9z"/>
			<path class="st1" d="M15.7,7l-0.2,0c-0.6,0.1-1.1,0.2-1.7,0.2l0,1C14.4,8.2,15,8.1,15.6,8c0,0,0,0,0,0L15.7,7L15.7,7L15.7,7z"/>
			<path class="st1" d="M16.4,6.9v1c1-0.1,2-0.2,2.8-0.2l0-1C18.3,6.7,17.4,6.8,16.4,6.9L16.4,6.9L16.4,6.9z"/>
			<path class="st1" d="M15.7,11.4c-0.1,0-0.1,0-0.2,0c-0.6,0.1-1.2,0.2-1.9,0.2l0,1c0.7-0.1,1.4-0.2,2.1-0.3h0V11.4L15.7,11.4z"/>
			<path class="st1" d="M16.4,11.3v1c1-0.1,1.8-0.2,2.6-0.2l0-1C18.2,11.1,17.3,11.2,16.4,11.3L16.4,11.3L16.4,11.3z"/>
			<path class="st1" d="M15.5,9.2v1l0.1,0c1.3-0.2,2.5-0.4,3.5-0.3l0-1C18,8.9,16.8,9.1,15.5,9.2L15.5,9.2L15.5,9.2z"/>
			<path class="st1" d="M14.8,9.3c-0.4,0-0.7,0.1-1.1,0.1l0,1c0.4,0,0.8-0.1,1.1-0.1L14.8,9.3L14.8,9.3L14.8,9.3z"/>
			<path class="st1" d="M25,6.9c-0.8-0.1-1.6-0.2-2.4-0.1l0,1c0.7-0.1,1.5,0,2.3,0.1L25,6.9L25,6.9L25,6.9z"/>
			<path class="st1" d="M28.1,7.3c-0.6-0.1-1.2-0.1-1.7-0.2C26.2,7,26,7,25.7,7v1c0.2,0,0.3,0,0.5,0.1c0.6,0.1,1.2,0.2,1.9,0.2
				L28.1,7.3L28.1,7.3z"/>
			<path class="st1" d="M24.8,9C24.1,9,23.4,8.9,22.7,9l0,1c0.6,0,1.3,0,2.1,0.1L24.8,9L24.8,9L24.8,9z"/>
			<path class="st1" d="M28.2,9.5c-0.6-0.1-1.2-0.2-1.8-0.2c-0.3,0-0.6-0.1-0.8-0.1v1c0.2,0,0.4,0.1,0.7,0.1c0.7,0.1,1.3,0.2,2,0.3
				L28.2,9.5L28.2,9.5z"/>
			<path class="st1" d="M26.3,12.4c0.7,0.1,1.3,0.2,2,0.3l0-1c-0.6-0.1-1.3-0.2-1.9-0.2c0,0-0.1,0-0.1,0L26.3,12.4L26.3,12.4
				L26.3,12.4z"/>
			<path class="st1" d="M25.6,11.3c-1-0.1-1.9-0.2-2.7-0.2l0,1c0.8,0,1.7,0.1,2.7,0.2L25.6,11.3L25.6,11.3L25.6,11.3z"/>
			<path class="st1" d="M19.7,26.9l1.2-3.1l1.2,3.1l3.4,0.2L23,29.3l0.8,3.3l-2.9-1.8l-2.9,1.8l0.8-3.3l-2.6-2.2L19.7,26.9
				L19.7,26.9L19.7,26.9z M12,25.8L12,25.8l5.5,4l-2.1,6.4c0,0,0,0,0,0c0,0,0,0,0,0l5.5-4l5.5,4c0,0,0,0,0,0c0,0,0,0,0-0.1l-2.1-6.4
				l5.4-4l0,0c0,0,0,0,0-0.1c0,0,0,0-0.1,0h-6.7L21,19.3l0,0c0,0,0,0,0,0s0,0,0,0l0,0l-2.1,6.4h-6.7C12.1,25.7,12,25.7,12,25.8
				C12,25.7,12,25.7,12,25.8L12,25.8L12,25.8z"/>
			<path class="st1" d="M34.4,33.9c-0.5,0.5-1.1,0.9-1.8,1.1c0.1-0.7,0.4-1.4,0.9-1.9c0.5-0.5,1.1-0.9,1.8-1.1
				C35.2,32.7,34.9,33.3,34.4,33.9L34.4,33.9L34.4,33.9z M31.8,29.6c-0.1-0.7,0-1.5,0.4-2.1c0.5,0.5,0.8,1.2,0.9,1.9
				c0.1,0.7,0,1.5-0.4,2.1C32.2,31,31.9,30.3,31.8,29.6L31.8,29.6L31.8,29.6z M33.3,24.1c-0.1-0.7-0.1-1.5,0.2-2.1
				c0.5,0.5,0.9,1.2,1,1.9s0.1,1.5-0.2,2.1C33.8,25.5,33.4,24.8,33.3,24.1L33.3,24.1L33.3,24.1z M36.8,25.7c0.1,0.7-0.1,1.5-0.5,2.1
				c-0.4,0.6-0.9,1.1-1.6,1.5c-0.1-0.7,0.1-1.5,0.5-2.1C35.6,26.5,36.1,26,36.8,25.7L36.8,25.7L36.8,25.7z M31.4,39.4
				c-0.6,0.4-1.3,0.7-2,0.7c0.2-0.7,0.7-1.3,1.3-1.7s1.3-0.7,2-0.7C32.5,38.4,32,39,31.4,39.4L31.4,39.4L31.4,39.4z M29.7,34.7
				c0.1-0.7,0.3-1.4,0.8-2c0.4,0.6,0.5,1.3,0.5,2.1c-0.1,0.7-0.3,1.4-0.8,2C29.8,36.2,29.7,35.4,29.7,34.7L29.7,34.7z M27.8,39.6
				c-0.2,0.7-0.6,1.3-1.2,1.8c-0.2-0.7-0.2-1.4,0-2.1c0.2-0.7,0.6-1.3,1.2-1.8C28,38.2,28,38.9,27.8,39.6L27.8,39.6z M28.9,42.8
				c-0.4,0.6-0.9,1.1-1.6,1.4c-0.5,0.2-1,0.3-1.5,0.3l0,0c-0.2,0-0.4,0-0.7-0.1c0.4-0.6,0.9-1.1,1.6-1.4
				C27.5,42.8,28.2,42.7,28.9,42.8L28.9,42.8L28.9,42.8z M22.6,43.1c0.3-0.7,0.9-1.2,1.5-1.5c0.1,0.7-0.1,1.5-0.4,2.1
				c-0.3,0.6-0.9,1.2-1.5,1.5C22.2,44.5,22.3,43.7,22.6,43.1L22.6,43.1L22.6,43.1z M14.5,44.2c-0.7-0.3-1.2-0.8-1.6-1.4
				c0.7-0.1,1.5,0,2.1,0.3c0.7,0.3,1.2,0.8,1.6,1.4C15.9,44.6,15.2,44.5,14.5,44.2L14.5,44.2L14.5,44.2z M14,39.6
				c-0.2-0.7-0.2-1.4,0-2.1c0.6,0.5,1,1.1,1.2,1.8s0.2,1.4,0,2.1C14.6,40.9,14.2,40.3,14,39.6L14,39.6z M17.7,41.6
				c0.6,0.3,1.2,0.8,1.5,1.5c0.3,0.7,0.5,1.4,0.4,2.1c-0.6-0.3-1.2-0.9-1.5-1.5C17.7,43,17.6,42.3,17.7,41.6L17.7,41.6L17.7,41.6z
				 M10.4,39.4c-0.6-0.4-1-1-1.3-1.7c0.7,0,1.4,0.2,2,0.7c0.6,0.4,1,1,1.3,1.7C11.7,40.1,11,39.8,10.4,39.4L10.4,39.4z M11.3,32.7
				c0.5,0.6,0.7,1.2,0.8,2c0.1,0.7-0.1,1.5-0.5,2.1c-0.5-0.6-0.7-1.3-0.8-2C10.8,34.1,10.9,33.4,11.3,32.7L11.3,32.7z M7.3,33.9
				c-0.5-0.5-0.8-1.2-0.9-1.9c0.7,0.2,1.3,0.5,1.8,1.1c0.5,0.5,0.8,1.2,0.9,1.9C8.5,34.8,7.8,34.4,7.3,33.9L7.3,33.9L7.3,33.9z
				 M7.1,29.2c-0.7-0.3-1.2-0.8-1.6-1.5C5.2,27.2,5,26.4,5,25.7c0.7,0.3,1.2,0.8,1.6,1.4C7,27.8,7.1,28.5,7.1,29.2L7.1,29.2
				L7.1,29.2z M7.3,23.9c0.1-0.7,0.5-1.4,1-1.9c0.3,0.7,0.4,1.4,0.2,2.1c-0.1,0.7-0.5,1.4-1,1.9C7.2,25.3,7.1,24.6,7.3,23.9
				L7.3,23.9L7.3,23.9z M8.7,29.5c0.1-0.7,0.4-1.4,0.9-1.9c0.3,0.7,0.5,1.4,0.4,2.1c-0.1,0.7-0.4,1.4-0.9,1.9
				C8.8,30.9,8.6,30.2,8.7,29.5L8.7,29.5L8.7,29.5z M34.4,30.4c1.1-0.3,2.1-1.1,2.7-2.1c0.6-1,0.8-2.2,0.5-3.3l-0.1-0.5L37,24.6
				c-0.6,0.2-1.1,0.4-1.5,0.8c0.1-0.6,0.1-1.1,0-1.7c-0.2-1.2-0.9-2.2-1.8-2.8l-0.4-0.3L33,21c-0.6,1-0.8,2.2-0.6,3.3
				c0.2,1.1,0.9,2.2,1.8,2.8c-0.2,0.4-0.3,0.8-0.3,1.2c-0.3-0.8-0.8-1.5-1.4-2L32,26.1l-0.3,0.4c-0.7,1-1,2.1-0.8,3.3
				s0.7,2.2,1.6,2.9h0c-0.3,0.4-0.5,0.8-0.6,1.2c-0.1-0.8-0.4-1.6-1-2.2l-0.3-0.4l-0.4,0.3c-0.9,0.8-1.4,1.9-1.5,3
				c-0.1,1.2,0.3,2.3,1,3.2l0,0c-0.3,0.3-0.6,0.6-0.8,1c0.1-0.8-0.1-1.6-0.5-2.4l-0.2-0.5l-0.4,0.3c-1,0.6-1.7,1.5-2.1,2.7
				c-0.3,1.1-0.2,2.3,0.3,3.4v0c-0.4,0.2-0.7,0.5-1,0.8c0.2-0.8,0.2-1.6,0-2.4l-0.1-0.5l-0.5,0.2c-1.1,0.4-2,1.2-2.6,2.2
				c-0.5,1-0.7,2.1-0.4,3.2c-0.2,0.1-0.3,0.2-0.5,0.3c-0.2-0.1-0.3-0.2-0.5-0.3c0.3-1.1,0.1-2.2-0.4-3.2c-0.6-1-1.5-1.8-2.6-2.2
				L17,40.3l-0.1,0.5c-0.2,0.8-0.2,1.6,0,2.4c-0.3-0.3-0.7-0.6-1-0.8v0c0.5-1.1,0.6-2.2,0.3-3.4c-0.3-1.1-1.1-2.1-2.1-2.7l-0.4-0.3
				l-0.2,0.5c-0.4,0.7-0.5,1.6-0.5,2.4c-0.2-0.4-0.5-0.7-0.8-1l0,0c0.7-0.9,1.1-2.1,1-3.2s-0.6-2.2-1.5-3l-0.4-0.3l-0.3,0.4
				c-0.5,0.6-0.8,1.4-1,2.2c-0.2-0.4-0.4-0.8-0.6-1.2h0c0.9-0.8,1.5-1.8,1.6-3c0.2-1.2-0.1-2.3-0.8-3.3l-0.3-0.4l-0.4,0.3
				c-0.6,0.5-1.1,1.2-1.4,2c-0.1-0.4-0.2-0.8-0.3-1.2c0.9-0.7,1.6-1.7,1.8-2.8c0.2-1.2,0-2.3-0.6-3.3l-0.3-0.4l-0.4,0.3
				c-1,0.7-1.6,1.7-1.8,2.8c-0.1,0.6-0.1,1.2,0,1.7c-0.5-0.4-1-0.6-1.5-0.8l-0.5-0.2l-0.1,0.5c-0.3,1.1-0.1,2.3,0.5,3.3
				c0.6,1,1.5,1.8,2.7,2.1l0.4,0.1c0,0.4,0.1,0.7,0.3,1.1c-0.6-0.4-1.3-0.6-2.1-0.7l-0.5,0v0.5c0,1.2,0.4,2.3,1.2,3.2
				c0.8,0.9,1.9,1.4,3,1.5l0.5,0c0.1,0.3,0.3,0.7,0.5,1c-0.5-0.2-1-0.3-1.6-0.3c-0.2,0-0.4,0-0.6,0L8,36.8l0.1,0.5
				c0.2,1.2,0.9,2.2,1.8,2.8c0.8,0.6,1.7,0.9,2.7,0.9c0.2,0,0.4,0,0.6,0l0.5-0.1c0.2,0.3,0.4,0.6,0.7,0.9c-0.7-0.1-1.5,0-2.2,0.2
				l-0.5,0.2l0.2,0.5c0.5,1.1,1.3,1.9,2.4,2.4c0.6,0.3,1.2,0.4,1.9,0.4c0.5,0,1-0.1,1.5-0.2l0.4-0.1c0.6,0.5,1.3,1,2.2,1.7
				c-0.4,0.3-0.9,0.6-1.4,0.9l0.9,0.6c0.5-0.3,1-0.6,1.4-0.9c0.4,0.3,0.9,0.6,1.4,0.9l0.9-0.6c-0.5-0.3-1-0.6-1.4-0.9
				c0.9-0.6,1.6-1.2,2.2-1.7l0.4,0.1c0.5,0.2,1,0.2,1.5,0.2l0,0c0.6,0,1.3-0.1,1.9-0.4c1.1-0.5,1.9-1.3,2.4-2.4l0.2-0.5L29.9,42
				c-0.7-0.2-1.5-0.3-2.2-0.2c0.3-0.3,0.5-0.6,0.7-0.9l0.4,0.1c0.2,0,0.4,0,0.6,0l0,0c1,0,1.9-0.3,2.7-0.9c0.9-0.7,1.6-1.7,1.8-2.8
				l0.1-0.5l-0.5-0.1c-0.2,0-0.4,0-0.6,0c-0.6,0-1.1,0.1-1.6,0.3c0.2-0.3,0.4-0.6,0.5-1l0.4,0c1.2-0.1,2.2-0.6,3-1.5s1.2-2,1.2-3.2
				v-0.5l-0.5,0c-0.8,0.1-1.5,0.3-2.1,0.7c0.1-0.3,0.2-0.7,0.3-1.1L34.4,30.4L34.4,30.4L34.4,30.4z"/>
			<path class="st1" d="M34.6,40.6c-1,1.4-2.1,2.8-3.5,4.1c-4.2,3.8-8.9,6-10.2,6.5c-1.3-0.6-6-2.7-10.2-6.5
				c-1.3-1.3-2.5-2.6-3.5-4.1c-4.7-6.9-5.4-15-5.4-21.3l0,0l19-1.1l19,1.1C39.9,25.6,39.3,33.6,34.6,40.6L34.6,40.6L34.6,40.6z
				 M2.9,3.1C6.5,2.7,14.4,2,20.9,2s14.5,0.8,18,1.2l1,13.9h-38L2.9,3.1L2.9,3.1L2.9,3.1z M41.9,1.5L41,1.4C40.9,1.4,29.7,0,20.9,0
				h0C12.2,0,1,1.4,0.8,1.4L0,1.5v15.5l0,0v2.2c0,6.5,0.7,15,5.7,22.4c1,1.5,2.2,2.9,3.7,4.3l0,0l0,0c2.7,2.6,6.4,5.1,11.6,8l0,0
				c5.2-2.9,8.8-5.4,11.6-8l0,0l0,0c1.4-1.4,2.6-2.8,3.7-4.3c5.1-7.4,5.7-15.9,5.7-22.4v-0.3l0,0L41.9,1.5L41.9,1.5L41.9,1.5z"/>
		</g>
		<g>
			<path class="st1" d="M71.9,17.1L70,17.1l-0.1-0.7l1-0.2v-5.7c0-1-0.5-1.5-1.3-1.5c-0.6,0-1.4,0.4-2.1,0.9l-0.6,0.4v5.9l1.1,0.2
				l-0.1,0.7L66,17.1l-2.1,0.1l-0.1-0.7l1.2-0.2V4l-0.7,0.1l-4.1-0.1v12.1l2.3,0.3l-0.1,0.7l-3.2-0.1l-3.4,0.1l-0.1-0.7l2.4-0.3V4.1
				l-3,0.1l-0.9,2.5h-0.8V3.1l5.7,0l4.9,0l2.1-0.2h0.7v6.5l2.9-1.9c2.6,0,3,1,3,3.5v5.3l1.5,0.2l-0.1,0.7L71.9,17.1L71.9,17.1z"/>
			<path class="st1" d="M77.1,12c0,2.3,1.2,3.9,3.3,3.9c0.8,0,1.8-0.4,2.5-0.8l0.3,0.8c-1,0.7-2.2,1.2-3.5,1.6
				c-2.4,0-4.6-1.7-4.6-4.9c0-3,1.8-4.5,4.5-5.1c2.6,0,3.5,1.7,3.5,3.8V12H77.1z M81.1,11c0-1.5-0.3-2.6-1.8-2.6
				c-1.2,0-2,1.1-2.2,2.8C77.1,11.2,81.1,11,81.1,11z"/>
			<path class="st1" d="M97,3.8l0.1-0.7l2.6,0.1l2.3-0.1l0.1,0.7l-1.7,0.3v8.2c0,2.6-1.1,4.3-5,5.3c-3.9,0-5.3-2.1-5.3-5.3V4.1
				l-1.8-0.3l0.1-0.7l2.8,0.1l2.7-0.1L94,3.8l-1.7,0.3v8.4c0,2.5,1.1,3.9,3.3,3.9c2.1,0,3.2-1.4,3.2-4V4.1L97,3.8L97,3.8z"/>
			<path class="st1" d="M104.8,17.1l-2.3,0.1l-0.1-0.7l1.4-0.2V8.9l-1.4,0.1l-0.1-0.7l2.4-0.6l0.9-0.1l0.1,1.7l3-1.9
				c2.6,0,3,0.9,3,3.3v5.6l1.5,0.2l-0.1,0.7l-2.3-0.1l-1.9,0.1l-0.1-0.7l1-0.2v-5.7c0-1-0.5-1.5-1.3-1.5c-0.7,0-1.4,0.4-2.1,0.9
				l-0.6,0.4v5.9l1.1,0.2l-0.1,0.7L104.8,17.1L104.8,17.1z"/>
			<path class="st1" d="M116.3,17.1l-2.3,0.1l-0.1-0.7l1.4-0.2V8.9l-1.4,0.1l-0.1-0.7l2.4-0.6l1-0.1v8.6l1.5,0.2l-0.1,0.7
				L116.3,17.1L116.3,17.1z M115.3,3.3l1.4-0.1l0.6,0.1l0.1,1.1l-0.2,1l-1.4,0.1l-0.5-0.1l-0.1-1.1L115.3,3.3L115.3,3.3z"/>
			<path class="st1" d="M124.3,15.8l2.4-7.2l-0.9-0.2l0.1-0.7l1.8,0.1l1.7-0.1l0.1,0.7l-1.3,0.2l-3.3,8.2l-1.5,0.6l-3.5-8.8
				l-1.2-0.2l0.1-0.7l2.3,0.1l2.1-0.1l0.1,0.7L122,8.6l2.2,5.9L124.3,15.8L124.3,15.8z"/>
			<path class="st1" d="M131.4,12c0,2.3,1.2,3.9,3.3,3.9c0.8,0,1.8-0.4,2.5-0.8l0.3,0.8c-1,0.7-2.2,1.2-3.5,1.6
				c-2.4,0-4.6-1.7-4.6-4.9c0-3,1.8-4.5,4.5-5.1c2.6,0,3.5,1.7,3.5,3.8V12H131.4z M135.4,11c0-1.5-0.3-2.6-1.8-2.6
				c-1.2,0-2,1.1-2.2,2.8C131.4,11.2,135.4,11,135.4,11z"/>
			<path class="st1" d="M142,10.3l2.3-2.8h1.6v2h-1.5c-0.5,0.1-1.4,0.8-1.9,1.4l-0.4,0.5v4.8l2.1,0.2l-0.1,0.8l-2.9-0.1l-2.2,0.1
				l-0.1-0.7l1.4-0.2V8.9l-1.4,0.1l-0.1-0.7l2.4-0.6l0.8-0.1L142,10.3z"/>
			<path class="st1" d="M152.2,8.8c-0.2-0.1-0.8-0.4-1.5-0.4c-0.8,0-1.5,0.4-1.5,1.2c0,0.6,0.5,1,1.4,1.5l1.5,0.8
				c1.3,0.7,1.9,1.4,1.9,2.6c0,1.8-1.5,2.5-3.8,3c-1.2,0-2.5-0.6-3-0.9l-0.4-2.3h1.3l0.7,1.7c0.4,0.3,1,0.5,1.6,0.5
				c1.1,0,1.6-0.7,1.6-1.5c0-0.8-0.4-1.1-1.5-1.7l-1.6-0.8c-0.9-0.4-1.7-1.2-1.7-2.3c0-1.4,1.3-2.2,3.6-2.7c1.1,0,2.2,0.5,2.8,0.9v2
				h-1.1L152.2,8.8L152.2,8.8z"/>
			<path class="st1" d="M157.7,17.1l-2.3,0.1l-0.1-0.7l1.4-0.2V8.9l-1.4,0.1l-0.1-0.7l2.4-0.6l1-0.1v8.6l1.5,0.2l-0.1,0.7
				L157.7,17.1L157.7,17.1z M156.7,3.3l1.4-0.1l0.6,0.1l0.1,1.1l-0.2,1l-1.4,0.1l-0.5-0.1l-0.1-1.1L156.7,3.3L156.7,3.3z"/>
			<path class="st1" d="M167.6,21.8v-2h1.7l2-3l-0.8,0.2l-3.4-8.4h-3v6.1c0,0.6,0.2,1.2,1.1,1.2c0.6,0,1.2-0.3,1.8-0.6l0.3,0.7
				l-2.5,1.4c-2.2,0-2.5-0.8-2.5-2.6v-6h-1.9V8.5l0.7-0.7h1.3V6.5l1.3-1.3h0.5v2.5h6.3l0.1,0.7l-1.3,0.2l2.2,5.9l0.2,1.4l2.5-7.2
				l-0.9-0.2l0.1-0.7l1.8,0.1l1.7-0.1l0.1,0.7l-1.3,0.2l-3.2,8.2l-2.2,5L167.6,21.8L167.6,21.8z"/>
			<path class="st1" d="M189.9,12.2c0,3-1.8,4.7-4.9,5.2c-2.7,0-4.5-2.1-4.5-4.8c0-3,1.8-4.7,4.9-5.2
				C188.1,7.4,189.9,9.5,189.9,12.2z M185.5,16.4c1.6,0,2.4-1.6,2.4-3.8c0-2.5-1.2-4.2-3-4.2c-1.6,0-2.4,1.6-2.4,3.8
				S183.7,16.4,185.5,16.4z"/>
			<path class="st1" d="M194.4,7.9h2.5v0.9h-2.5v7.4l2.3,0.1l-0.1,0.8l-3.1-0.1l-2.3,0.1l-0.1-0.7l1.4-0.2V8.8h-1.8V8.5l0.6-0.7h1.2
				V7.6c0-1.2,0.4-2,1.1-2.8l1.7-1.9h2.5v1.6h-2.6L194.8,5c-0.3,0.4-0.4,1-0.4,2.3L194.4,7.9L194.4,7.9z"/>
			<path class="st1" d="M212.2,17.1l-3.2-0.1l-3.4,0.1l-0.1-0.7l2.4-0.3V4.1l-3,0L204,6.6h-0.8V3.1l5.7,0.1l5.8-0.1v3.5h-0.8
				L213,4.1l-3,0v12.1l2.3,0.3L212.2,17.1L212.2,17.1z"/>
			<path class="st1" d="M215.8,12c0,2.3,1.2,3.9,3.3,3.9c0.8,0,1.8-0.4,2.5-0.8l0.3,0.8c-1,0.7-2.2,1.2-3.5,1.6
				c-2.4,0-4.6-1.7-4.6-4.9c0-3,1.8-4.5,4.5-5.1c2.6,0,3.5,1.7,3.5,3.8V12H215.8z M219.8,11c0-1.5-0.3-2.6-1.8-2.6
				c-1.2,0-2,1.1-2.2,2.8C215.8,11.2,219.8,11,219.8,11z"/>
			<path class="st1" d="M226.4,16.4l-0.1,0.7l-1.6-0.1l-2.1,0.1l-0.1-0.7l1.4-0.2l3-3.6l-2.9-4l-1.2-0.2l0.1-0.7l2.3,0.1l1.9-0.1
				l0.1,0.7l-0.8,0.2l1.5,2.2l0.2,0.5l1.9-2.7l-1-0.2l0.1-0.7l1.6,0.1l2.1-0.1l0.1,0.7l-1.4,0.2l-2.6,3.2l3.1,4.4l1.2,0.2l-0.1,0.7
				l-2.3-0.1l-1.9,0.1l-0.1-0.7l0.8-0.2l-1.8-2.6l-0.2-0.5l-2.1,3L226.4,16.4z"/>
			<path class="st1" d="M237.8,7.4c2.5,0,3.2,0.6,3.2,3.2v3.9c0,0.9,0.1,1.2,0.3,1.5h1l0.1,0.7l-2.6,0.5l-0.6-1.5l-2.4,1.7
				c-1.7,0-2.9-1-2.9-2.6c0-0.7,0.3-1.2,0.7-1.8l4.5-1.5v-1c0-1.2-0.1-1.9-1.2-1.9c-0.5,0-1.2,0.2-1.6,0.4l-0.3,1.6h-1.7V9
				C234.2,9,237.8,7.4,237.8,7.4z M239,12.3l-2.9,1.2c-0.3,0.3-0.4,0.7-0.4,1.1c0,1,0.6,1.4,1.2,1.4s1-0.3,1.3-0.5l0.8-0.6V12.3z"/>
			<path class="st1" d="M248.6,8.8c-0.2-0.1-0.8-0.4-1.5-0.4c-0.8,0-1.5,0.4-1.5,1.2c0,0.6,0.5,1,1.4,1.5l1.5,0.8
				c1.3,0.7,1.9,1.4,1.9,2.6c0,1.8-1.5,2.5-3.8,3c-1.2,0-2.5-0.6-3-0.9l-0.4-2.3h1.3l0.7,1.7c0.4,0.3,1,0.5,1.6,0.5
				c1.1,0,1.6-0.7,1.6-1.5c0-0.8-0.4-1.1-1.5-1.7l-1.6-0.8c-0.9-0.4-1.7-1.2-1.7-2.3c0-1.4,1.3-2.2,3.6-2.7c1.1,0,2.2,0.5,2.8,0.9v2
				H249L248.6,8.8L248.6,8.8z"/>
			<path class="st1" d="M260.4,7.4c2.5,0,3.2,0.6,3.2,3.2v3.9c0,0.9,0.1,1.2,0.3,1.5h1l0.1,0.7l-2.6,0.5l-0.6-1.5l-2.4,1.7
				c-1.7,0-2.9-1-2.9-2.6c0-0.7,0.3-1.2,0.7-1.8l4.5-1.5v-1c0-1.2-0.1-1.9-1.2-1.9c-0.5,0-1.2,0.2-1.6,0.4l-0.3,1.6h-1.7V9
				C256.8,9,260.4,7.4,260.4,7.4z M261.7,12.3l-2.9,1.2c-0.3,0.3-0.4,0.7-0.4,1.1c0,1,0.6,1.4,1.2,1.4s1-0.3,1.3-0.5l0.8-0.6V12.3z"
				/>
			<path class="st1" d="M264.9,8.9V8.5l0.7-0.7h1.3V6.5l1.3-1.3h0.5V8h3v0.9h-3v5.9c0,0.6,0.2,1.2,1.1,1.2c0.6,0,1-0.2,1.6-0.5
				l0.3,0.7l-2.3,1.3c-2.2,0-2.5-0.8-2.5-2.6v-6L264.9,8.9L264.9,8.9z"/>
			<path class="st1" d="M280.2,12.4l-1.3,3.7l1.7,0.3l-0.1,0.7l-2.4-0.1l-2.1,0.1l-0.1-0.7l1.6-0.2l5-13l1.2-0.3l5.2,13.3l1.6,0.2
				l-0.1,0.7l-2.8-0.1l-2.6,0.1l-0.1-0.7l1.7-0.3l-1.4-3.7L280.2,12.4L280.2,12.4z M282.8,6.2l-0.1-1.1l-2.2,6.4h4.3L282.8,6.2
				L282.8,6.2z"/>
			<path class="st1" d="M298.9,14.5c0,0.9,0.1,1.2,0.2,1.5h1l0.1,0.7l-2.6,0.5l-0.6-1.6l-2.9,1.8c-2.6,0-3.1-0.9-3.1-3.3V8.9
				L289.7,9l-0.1-0.8l2.4-0.5l1-0.1v6.7c0,1,0.4,1.5,1.4,1.5c0.6,0,1.4-0.5,2.2-1l0.4-0.3V8.9L295.8,9l-0.1-0.8l2.2-0.5l1-0.1
				C298.9,7.7,298.9,14.5,298.9,14.5z"/>
			<path class="st1" d="M306.5,8.8c-0.2-0.1-0.8-0.4-1.5-0.4c-0.8,0-1.5,0.4-1.5,1.2c0,0.6,0.5,1,1.4,1.5l1.5,0.8
				c1.3,0.7,1.9,1.4,1.9,2.6c0,1.8-1.5,2.5-3.8,3c-1.2,0-2.5-0.6-3-0.9l-0.4-2.3h1.3l0.7,1.7c0.4,0.3,1,0.5,1.6,0.5
				c1.1,0,1.6-0.7,1.6-1.5c0-0.8-0.4-1.1-1.5-1.7l-1.6-0.8c-0.9-0.4-1.7-1.2-1.7-2.3c0-1.4,1.3-2.2,3.6-2.7c1.1,0,2.2,0.5,2.8,0.9v2
				H307L306.5,8.8L306.5,8.8z"/>
			<path class="st1" d="M308.9,8.9V8.5l0.7-0.7h1.3V6.5l1.3-1.3h0.5V8h3v0.9h-3v5.9c0,0.6,0.2,1.2,1.1,1.2c0.6,0,1-0.2,1.6-0.5
				l0.3,0.7l-2.3,1.3c-2.2,0-2.5-0.8-2.5-2.6v-6L308.9,8.9L308.9,8.9z"/>
			<path class="st1" d="M319.3,17.1l-2.3,0.1l-0.1-0.7l1.4-0.2V8.9l-1.4,0.1l-0.1-0.7l2.4-0.6l1-0.1v8.6l1.5,0.2l-0.1,0.7
				L319.3,17.1z M318.3,3.3l1.4-0.1l0.6,0.1l0.1,1.1l-0.2,1l-1.4,0.1l-0.5-0.1l-0.1-1.1L318.3,3.3z"/>
			<path class="st1" d="M325,17.1l-2.3,0.1l-0.1-0.7l1.4-0.2V8.9l-1.4,0.1l-0.1-0.7l2.4-0.6l0.9-0.1l0.1,1.7l3-1.9
				c2.6,0,3,0.9,3,3.3v5.6l1.5,0.2l-0.1,0.7l-2.3-0.1l-1.9,0.1l-0.1-0.7l1-0.2v-5.7c0-1-0.5-1.5-1.3-1.5c-0.7,0-1.4,0.4-2.1,0.9
				l-0.6,0.4v5.9l1.1,0.2l-0.1,0.7L325,17.1L325,17.1z"/>
		</g>
	</g>
</g>
</svg>
